<svg width="30" height="27" viewBox="0 0 30 27" fill="none" preserveAspectRatio="none" xmlns="http://www.w3.org/2000/svg">
<path d="M29.1 15.6999C27.7 22.6999 21 27.2999 14.1 25.8999C7.1 24.5999 2.59999 17.8999 3.89999 10.8999C5.19999 3.99987 11.9 -0.600114 18.9 0.699886C25.9 2.09989 30.4 8.79988 29.1 15.6999Z" fill="#708587"/>
<path d="M28.6 15.7001C27.3 22.4001 20.8 26.7001 14.2 25.4001C7.50001 24.2001 3.09999 17.7001 4.39999 11.0001C5.69999 4.30009 12.1 9.82881e-05 18.8 1.2001C25.5 2.5001 29.9 9.0001 28.6 15.7001Z" fill="#FEFBF1"/>
<path d="M27 15.3999C25.9 21.1999 20.3 24.9999 14.5 23.8999C8.70001 22.6999 4.90001 17.0999 6.00001 11.2999C7.10001 5.49988 12.7 1.69988 18.5 2.79988C24.3 3.89988 28.1 9.59988 27 15.3999Z" fill="#11222E"/>
<path d="M25.8 15.1001C24.9 20.3001 19.9 23.7001 14.7 22.7001C9.50002 21.7001 6.10001 16.7001 7.10001 11.5001C8.10001 6.40008 13.1 3.00008 18.3 4.00008C23.4 5.00008 26.8 10.0001 25.8 15.1001Z" fill="#66301D"/>
<path d="M25.5 5.90009C24.8 5.20009 24 4.70008 23.5 3.80008C23.1 3.00008 23.2 1.70009 24.1 1.40009C23.2 1.20009 22.4 1.70008 21.8 2.30008C21.2 2.90008 20.7 3.70009 20.2 4.40009C19.8 5.00009 19.3 5.5001 18.8 6.1001C17.2 2.7001 13.6 0.600098 9.89999 0.600098C6.19999 0.600098 2.59999 2.50009 0.299988 5.40009C1.79999 5.00009 3.39999 5.80009 4.39999 7.00009C5.29999 8.20009 5.80001 9.8001 6.20001 11.2001C6.60001 12.7001 7.10001 14.2001 8.10001 15.4001C8.50001 15.8001 8.89999 16.1001 9.39999 16.4001C9.29999 17.7001 9.7 19.0001 10.5 20.0001C11.4 21.1001 12.7 21.8001 13.8 22.8001C14.9 23.8001 15.7 25.4001 15.1 26.7001C15.4 25.6001 16.8 25.2001 17.9 24.7001C19.5 24.0001 20.7 22.8001 21.6 21.3001C22.2 20.3001 22.5 19.2001 22.6 18.0001L24.7 18.9001L25.5 17.9001C25.5 17.8334 25.5 17.8001 25.5 17.8001C25.3 17.0001 24.9 16.0001 24.9 15.2001C25 14.7001 25.3 14.6001 25.7 14.3001C26.2 13.8001 26.6 13.1001 26.8 12.5001C27.7 10.3001 27.2 7.60009 25.5 5.90009Z" fill="#005E08"/>
<path fill-rule="evenodd" clip-rule="evenodd" d="M8.10001 4.30008C7.40001 3.80008 6.50001 3.60009 5.60001 3.50009C4.60001 3.40009 3.9 3.60009 3 3.90009C6 4.30009 8.70001 6.60009 9.70001 9.50009C8.50001 9.80009 7.50001 10.8001 7.20001 12.0001C7.10001 10.4001 6.59999 8.7001 5.79999 7.2001C5.39999 6.4001 4.80001 5.6001 4.10001 5.1001C3.30001 4.6001 2.19999 4.30008 1.29999 4.80008C1.69999 4.30008 2.20001 4.0001 2.70001 3.6001C3.50001 3.1001 4.30001 2.70009 5.20001 2.40009C6.60001 2.00009 8.1 2.00009 9.5 2.50009C10.7 2.90009 11.9 3.80009 12 5.00009C12.0667 5.26676 12.0667 5.53341 12 5.80008C12 6.20008 12.1 8.10008 11.9 8.30008C11.5 8.60008 11.1 7.80009 11 7.50009C10.3 6.20009 9.50001 5.00008 8.10001 4.30008ZM21.7 7.80008C21.6 7.30008 21.5 6.80008 21.3 6.30008C21 4.80008 21.3 2.60009 23 2.00009C22.3 2.20009 22.7 4.10009 22.9 4.50009C23.3 5.50009 24.1 6.10009 24.8 6.90009C25.7 7.80009 26.5 8.9001 26.7 10.1001C26.8 11.4001 26.3 12.8001 25.2 13.3001C24.7 12.4001 24 11.7001 23.2 11.2001C24.2 9.6001 23.5 7.90009 22.8 6.40009C22.4 5.50009 22 4.40009 22.1 3.40009C21.8 3.90009 21.9 4.5001 22 5.1001C22.2 5.7001 22.4 6.20008 22.6 6.80008C23.1 8.00008 23.1 9.3001 22.8 10.6001C22.5 10.2001 21.9 10.1001 21.5 10.3001C21.9 9.80008 21.9 9.00008 21.8 8.30008C21.8 8.16675 21.7667 8.00008 21.7 7.80008ZM20.4 21.8001C20.1 22.2001 19.4 22.8001 18.9 23.1001C18.7 23.2001 18.4 23.3001 18.2 23.4001C17.3 23.8001 16.4 24.5001 15.8 25.2001C16 24.2001 15.6 23.2001 15.1 22.4001C14.6 21.6001 13.9 20.9001 13.4 20.0001C12.9 19.1001 12.6 18.0001 13.1 17.2001C13.6 17.9001 14.7 18.2001 15.6 17.8001C15.3 18.8001 15.7 19.8001 16 20.8001C16.4 21.8001 16.7 22.8001 16.3 23.8001C16.9 23.1001 16.8 22.0001 16.7 21.1001C16.6 20.2001 16.5 19.2001 17 18.4001C17.4 19.1001 18.2 19.5001 18.9 19.5001C19.7 19.5001 20.4 19.3001 21.2 19.1001C21.3 20.0001 21 21.0001 20.4 21.8001ZM25.1 20.2001C24.1 19.0001 22.7 18.3001 21.2 18.3001C20.2 18.2001 19.2 18.5001 18.3 18.2001C17.6 18.0001 17 17.5001 16.6 16.8001C16.3333 16.8667 16.0667 16.8667 15.8 16.8001C14.8 16.7001 14 16.1001 13.2 15.5001C12.5 14.9001 11.8 14.2001 10.9 13.8001C9.99999 13.4001 8.90001 13.4001 8.10001 14.0001C8.10001 12.3001 9.40001 10.6001 11.1 10.0001C11.7 9.80009 12.3 9.7001 12.9 9.7001C12.7 8.9001 12.7 8.0001 12.8 7.2001C13.2 5.4001 14.3 3.9001 15.6 2.7001C16.9 1.6001 18.5 0.700098 20.2 0.100098C18.9 1.7001 18.5 4.00009 19.2 5.90009C19.7 7.10009 20.9 9.4001 21 11.2001C21.7 11.3001 22.5 11.6001 23.1 12.0001C24.2 12.7001 25 13.9001 25.5 15.1001C26.1 16.7001 26.2 18.8001 25.1 20.2001ZM22.3 14.7001C21.8 14.5001 21.2 14.4001 20.7 14.1001C20.2 13.8001 19.7 13.2001 19.9 12.6001C18.4 14.0001 15.9 13.7001 14.6 12.2001C14 11.6001 13.6 10.8001 13.2 10.0001C13.5 11.7001 14.4 12.9001 15.7 14.0001C16.4 14.5001 17.3 14.9001 18 14.5001C18.3 14.3001 18.5 14.1001 18.8 14.0001C19.2 13.8001 19.6 13.9001 19.9 14.1001C20.2 14.3001 20.4 14.6001 20.7 14.8001C21.3 15.3001 22.1 15.6001 22.8 15.9001C23.5 16.3001 24.2 16.8001 24.4 17.6001C24.3 16.3001 23.5 15.2001 22.3 14.7001Z" fill="#31C20D"/>
<path fill-rule="evenodd" clip-rule="evenodd" d="M15.3 6.19991C15.6 4.09991 16.9 2.19991 18.8 1.19991C17.8 2.49991 16.8 3.8999 16.4 5.5999C16 7.1999 16.2 9.09988 17.3 10.2999C17.5 10.5999 17.8 10.8999 18 11.2999C18.2 11.7999 18 12.6999 17.3 12.3999C16.9 12.1999 16.4 11.2999 16.2 10.8999C15.4 9.49989 15 7.79991 15.3 6.19991ZM13.4 12.9999C13.6 13.2999 13.8 13.5999 14 13.9999C13.3 13.1999 12.6 12.5999 11.5 12.3999C10.5 12.1999 9.50001 12.3999 8.60001 12.9999C9.10001 12.2999 9.80001 11.7999 10.6 11.6999C11.4 11.4999 12.3 11.5999 13 11.8999C13.1 11.9999 13.3 12.7999 13.4 12.9999ZM24.5 19.2999C23.8 18.3999 22.6 17.7999 21.4 17.7999C20.2 17.7999 18.6 18.4999 17.6 17.2999C16.8 16.3999 17.4 15.3999 18.3 14.8999C17.9 15.5999 18.1 16.5999 18.8 17.0999C19.7 17.7999 21.1 17.3999 22.2 17.5999C23.2 17.6999 24.1 18.3999 24.5 19.2999ZM12.6 20.9999C11.9 20.3999 11.2 19.7999 10.6 18.9999C10.3 18.5999 9.7 17.5999 10 16.9999C10.2 16.3999 10.9 16.8999 11 17.2999C11.5 18.4999 11.5 19.9999 12.6 20.9999ZM13.2 3.4999C12.8 3.5999 12.3 2.89991 11.9 2.69991C10.9 1.89991 9.7 1.3999 8.5 1.0999C10.7 0.799903 12.9 1.29989 14.7 2.39989C14.4 2.19989 13.5 3.3999 13.2 3.4999Z" fill="#89FF69"/>
</svg>
