<svg width="77" height="74" viewBox="0 0 77 74" fill="none" preserveAspectRatio="none" xmlns="http://www.w3.org/2000/svg">
<path d="M16 39C16 51.2 25.9 61.1 38.1 61.1C50.3 61.1 60.2 51.2 60.2 39C60.2 26.8 50.3 16.9 38.1 16.9C25.9 16.9 16 26.8 16 39Z" fill="#1E1F17"/>
<path fill-rule="evenodd" clip-rule="evenodd" d="M38.0999 12.9C52.4999 12.9 64.1999 24.6 64.1999 39C64.1999 53.5 52.4999 65.2 38.0999 65.2C23.6999 65.2 11.8999 53.5 11.8999 39C11.8999 24.6 23.6999 12.9 38.0999 12.9ZM38.0999 61.1C50.2999 61.1 60.1999 51.2 60.1999 39C60.1999 26.8 50.2999 16.9 38.0999 16.9C25.8999 16.9 15.9999 26.8 15.9999 39C15.9999 51.2 25.8999 61.1 38.0999 61.1Z" fill="#8B4416"/>
<path d="M37.3 40.9V0.199951C47.2 23.6 37.3 40.9 37.3 40.9Z" fill="#6DAC2E"/>
<path d="M37.2999 0.199951V40.9C24.9999 24.5 37.2999 0.199951 37.2999 0.199951Z" fill="#78BD32"/>
<path d="M35.7 44L59.4 10.9C53.9 35.7 35.7 44 35.7 44Z" fill="#6DAC2E"/>
<path d="M59.4 10.9L35.7 44C35.3 23.5 59.4 10.9 59.4 10.9Z" fill="#78BD32"/>
<path d="M36.2 40.5L76.3999 34C54.8999 47.5 36.2 40.5 36.2 40.5Z" fill="#6DAC2E"/>
<path d="M76.3999 34L36.2 40.5C50.5 25.8 76.3999 34 76.3999 34Z" fill="#78BD32"/>
<path d="M35.2 38.1L68.2 62C43.4 56.3 35.2 38.1 35.2 38.1Z" fill="#6DAC2E"/>
<path d="M68.2 62L35.2 38.1C55.7 37.9 68.2 62 68.2 62Z" fill="#78BD32"/>
<path d="M36.9999 34L47.1999 73.3C31.6999 53.2 36.9999 34 36.9999 34Z" fill="#6DAC2E"/>
<path d="M47.2 73.3L37 34C53 46.8 47.2 73.3 47.2 73.3Z" fill="#78BD32"/>
<path d="M37.1999 31.7L30.9999 71.9C24.7999 47.2 37.1999 31.7 37.1999 31.7Z" fill="#6DAC2E"/>
<path d="M31 71.9L37.2 31.7C46.8 49.8 31 71.9 31 71.9Z" fill="#78BD32"/>
<path d="M39.1 34L13 65.2C20.4 40.8 39.1 34 39.1 34Z" fill="#6DAC2E"/>
<path d="M13 65.2L39.1 34C38 54.4 13 65.2 13 65.2Z" fill="#78BD32"/>
<path d="M39.9999 34.9L0.399902 44.5C20.7999 29.4 39.9999 34.9 39.9999 34.9Z" fill="#6DAC2E"/>
<path d="M0.399902 44.5L39.9999 34.9C26.8999 50.7 0.399902 44.5 0.399902 44.5Z" fill="#78BD32"/>
<path d="M39.6999 37.4L6.8999 13.2C31.6999 19.1 39.6999 37.4 39.6999 37.4Z" fill="#6DAC2E"/>
<path d="M6.8999 13.2L39.6999 37.4C19.1999 37.5 6.8999 13.2 6.8999 13.2Z" fill="#78BD32"/>
<path d="M33.5 38.4001C33.5 40.9001 35.6 43.0001 38.1 43.0001C40.7 43.0001 42.7 40.9001 42.7 38.4001C42.7 35.9001 40.7 33.8 38.1 33.8C35.6 33.8 33.5 35.9001 33.5 38.4001Z" fill="#78BD32"/>
<path d="M36.5 39.7L46.6 8.5C48.4 28.9 36.5 39.7 36.5 39.7Z" fill="#7DC535"/>
<path d="M46.5999 8.5L36.4999 39.7C31.1999 24 46.5999 8.5 46.5999 8.5Z" fill="#88D639"/>
<path d="M34.6001 41.6L60.9001 22.1C50.5001 39.8 34.6001 41.6 34.6001 41.6Z" fill="#7DC535"/>
<path d="M60.9001 22.1L34.6001 41.6C39.3001 25.8 60.9001 22.1 60.9001 22.1Z" fill="#88D639"/>
<path d="M35.8 39.1L68.2 44C48.4 49.1 35.8 39.1 35.8 39.1Z" fill="#7DC535"/>
<path d="M68.2 44L35.8 39.0999C50.4 31.2999 68.2 44 68.2 44Z" fill="#88D639"/>
<path d="M35.6001 37L55.0001 63.5C37.4001 53 35.6001 37 35.6001 37Z" fill="#7DC535"/>
<path d="M55.0001 63.5L35.6001 37C51.4001 41.9 55.0001 63.5 55.0001 63.5Z" fill="#88D639"/>
<path d="M38 34.3L36.1 67.0001C29.2 47.7001 38 34.3 38 34.3Z" fill="#7DC535"/>
<path d="M36.1001 67.0001L38.0001 34.3C47.1001 48 36.1001 67.0001 36.1001 67.0001Z" fill="#88D639"/>
<path d="M38.8 32.6L24 61.9C25.4 41.4 38.8 32.6 38.8 32.6Z" fill="#7DC535"/>
<path d="M24 61.9L38.8 32.6C41.7 48.8 24 61.9 24 61.9Z" fill="#88D639"/>
<path d="M39.5999 34.8L11.8999 52.3C23.5999 35.4 39.5999 34.8 39.5999 34.8Z" fill="#7DC535"/>
<path d="M11.8999 52.3L39.5999 34.8C33.6999 50.2 11.8999 52.3 11.8999 52.3Z" fill="#88D639"/>
<path d="M40.0999 35.8L7.3999 33.3C26.7999 26.7 40.0999 35.8 40.0999 35.8Z" fill="#7DC535"/>
<path d="M7.3999 33.3L40.0999 35.8C26.0999 44.6 7.3999 33.3 7.3999 33.3Z" fill="#88D639"/>
<path d="M39.2001 37.6L20.1001 10.9C37.6001 21.6 39.2001 37.6 39.2001 37.6Z" fill="#7DC535"/>
<path d="M20.1001 10.9L39.2001 37.6C23.5001 32.6 20.1001 10.9 20.1001 10.9Z" fill="#88D639"/>
<path d="M34.3001 36.8C33.6001 38.8 34.7001 40.8 36.6001 41.5C38.6001 42.1 40.7001 40.9999 41.3001 39.0999C41.9001 37.0999 40.9001 35 38.9001 34.4C37.0001 33.8 34.9001 34.9 34.3001 36.8Z" fill="#88D639"/>
</svg>
