<svg width="144" height="74" viewBox="0 0 144 74" fill="none" preserveAspectRatio="none" xmlns="http://www.w3.org/2000/svg">
<path d="M130.5 54.5C130.5 47 124.4 41 116.9 41C109.4 41 103.4 47 103.4 54.5C103.4 62 109.4 68.1 116.9 68.1C124.4 68.1 130.5 62 130.5 54.5Z" fill="white" stroke="black" stroke-width="0.7" stroke-linecap="square" stroke-linejoin="round"/>
<path d="M98.1001 53.8H99.4001V54.5C99.4001 64.2 107.3 72 116.9 72C126.6 72 134.4 64.2 134.4 54.5V53.8H135.8V54.5C135.8 64.9 127.3 73.4 116.9 73.4C106.5 73.4 98.1001 64.9 98.1001 54.5V53.8Z" fill="white" stroke="black" stroke-width="0.7" stroke-linecap="square" stroke-linejoin="round"/>
<path d="M117.9 54.5C117.9 54 117.5 53.5 116.9 53.5C116.3 53.5 115.9 54 115.9 54.5C115.9 55.1 116.3 55.6 116.9 55.6C117.5 55.6 117.9 55.1 117.9 54.5Z" fill="black"/>
<path d="M85.6 54.5C85.6 47 79.6 41 72.1 41C64.6 41 58.5 47 58.5 54.5C58.5 62 64.6 68.1 72.1 68.1C79.6 68.1 85.6 62 85.6 54.5Z" fill="white" stroke="black" stroke-width="0.7" stroke-linecap="square" stroke-linejoin="round"/>
<path d="M53.2002 53.8H54.6002V54.5C54.6002 64.2 62.4002 72 72.1002 72C81.7002 72 89.6002 64.2 89.6002 54.5V53.8H90.9003V54.5C90.9003 64.9 82.5002 73.4 72.1002 73.4C61.7002 73.4 53.2002 64.9 53.2002 54.5V53.8Z" fill="white" stroke="black" stroke-width="0.7" stroke-linecap="square" stroke-linejoin="round"/>
<path d="M73.1001 54.5C73.1001 54 72.6001 53.5 72.1001 53.5C71.5001 53.5 71.1001 54 71.1001 54.5C71.1001 55.1 71.5001 55.6 72.1001 55.6C72.6001 55.6 73.1001 55.1 73.1001 54.5Z" fill="black"/>
<path d="M40.8003 54.5C40.8003 47 34.7002 41 27.2002 41C19.8002 41 13.7002 47 13.7002 54.5C13.7002 62 19.8002 68.1 27.2002 68.1C34.7002 68.1 40.8003 62 40.8003 54.5Z" fill="white" stroke="black" stroke-width="0.7" stroke-linecap="square" stroke-linejoin="round"/>
<path d="M8.3999 53.8H9.79993V54.5C9.79993 64.2 17.5998 72 27.1998 72C36.8998 72 44.6998 64.2 44.6998 54.5V53.8H46.0999V54.5C46.0999 64.9 37.5998 73.4 27.1998 73.4C16.7998 73.4 8.3999 64.9 8.3999 54.5V53.8Z" fill="white" stroke="black" stroke-width="0.7" stroke-linecap="square" stroke-linejoin="round"/>
<path d="M28.3003 54.5C28.3003 54 27.8002 53.5 27.2002 53.5C26.7002 53.5 26.2002 54 26.2002 54.5C26.2002 55.1 26.7002 55.6 27.2002 55.6C27.8002 55.6 28.3003 55.1 28.3003 54.5Z" fill="black"/>
<path d="M142.9 36.8V0.800049H19.2002C9.2002 0.800049 1.2002 8.90005 1.2002 18.8C1.2002 28.7 9.2002 36.8 19.2002 36.8H142.9Z" fill="white" stroke="black" stroke-width="1.1" stroke-miterlimit="10" stroke-linecap="square"/>
<path d="M142.9 27.2999C120.7 30.4999 74.4002 36.9999 73.7002 33.3999C72.8002 29.2999 92.0002 27.1999 86.2002 22.7999C80.4002 18.3999 15.0002 26.4999 5.7002 22.7999C4.1002 22.1332 2.6002 21.4999 1.2002 20.8999" stroke="black" stroke-width="0.4" stroke-linejoin="round"/>
<path d="M142.9 16.6001C133.5 18.6001 111 24.1001 109.7 19.2001C108.3 13.4001 99.5 8.80009 89.2 11.9001C78.9 15.0001 37.4 19.8001 22.9 18.0001C15.1 16.9001 7.1 14.2001 2.5 12.5001" stroke="black" stroke-width="0.4" stroke-linejoin="round"/>
<path d="M142.9 2.20009C134.9 7.40009 116.9 15.8001 113.2 13.8001C108.6 11.3001 112.1 -0.199909 90.6 2.30009C72.4 4.40009 31 9.10009 8.5 4.50009" stroke="black" stroke-width="0.4" stroke-linejoin="round"/>
<path d="M57.4001 36.7999C58.8001 34.4999 61.7001 33.2999 60.9001 30.4999C59.8001 26.8999 25.6001 32.9999 7.1001 32.1999" stroke="black" stroke-width="0.4" stroke-linejoin="round"/>
</svg>
