<svg width="53" height="54" viewBox="0 0 53 54" fill="none" preserveAspectRatio="none" xmlns="http://www.w3.org/2000/svg">
<path d="M50.7002 1.5C51.5002 2 51.9002 3.00001 51.9002 4.10001V49.5C51.9002 51.2 50.8002 52.6 49.4002 52.6H4.2002C3.0002 52.6 1.9002 51.6 1.7002 50.2C2.9002 22.8 21.9002 1 45.0002 1C46.9335 1 48.8335 1.16667 50.7002 1.5Z" fill="white"/>
<path d="M50.7002 1.5C51.5002 2 51.9002 3.00001 51.9002 4.10001V49.5C51.9002 51.2 50.8002 52.6 49.4002 52.6H4.2002C3.0002 52.6 1.9002 51.6 1.7002 50.2C2.9002 22.8 21.9002 1 45.0002 1C46.9335 1 48.8335 1.16667 50.7002 1.5Z" stroke="black" stroke-width="1.6" stroke-linejoin="round"/>
<path d="M50.7 1.89984C51.4 2.39984 51.9 3.39985 51.9 4.49985C51.9 4.49985 52.5 10.4998 51.4 11.7998C50.3 12.9998 43.8 12.2998 42.9 12.3998C25.8 14.1998 14.4 27.1998 12.4 47.9998C12.2 50.3998 11.7 52.1998 9.80005 52.2998H4C2.8 52.2998 1.8 51.1999 1.5 49.8999C2.8 22.3999 20.7 1.19984 44.9 1.39984C46.9 1.39984 48.8333 1.56651 50.7 1.89984Z" fill="white"/>
<path d="M50.7 1.89984C51.4 2.39984 51.9 3.39985 51.9 4.49985C51.9 4.49985 52.5 10.4998 51.4 11.7998C50.3 12.9998 43.8 12.2998 42.9 12.3998C25.8 14.1998 14.4 27.1998 12.4 47.9998C12.2 50.3998 11.7 52.1998 9.80005 52.2998H4C2.8 52.2998 1.8 51.1999 1.5 49.8999C2.8 22.3999 20.7 1.19984 44.9 1.39984C46.9 1.39984 48.8333 1.56651 50.7 1.89984Z" stroke="black" stroke-width="1.6" stroke-linejoin="round"/>
</svg>
