<svg width="53" height="54" viewBox="0 0 53 54" fill="none" preserveAspectRatio="none" xmlns="http://www.w3.org/2000/svg">
<path d="M4.00037 1.19995H49.5004C50.9004 1.19995 52.1003 2.59993 52.1003 4.29993V49.7C52.1003 51.4 50.9004 52.7999 49.5004 52.7999H4.00037C2.60037 52.7999 1.40039 51.4 1.40039 49.7V4.29993C1.40039 2.59993 2.60037 1.19995 4.00037 1.19995Z" fill="white"/>
<path d="M4.00037 1.19995H49.5004C50.9004 1.19995 52.1003 2.59993 52.1003 4.29993V49.7C52.1003 51.4 50.9004 52.7999 49.5004 52.7999H4.00037C2.60037 52.7999 1.40039 51.4 1.40039 49.7V4.29993C1.40039 2.59993 2.60037 1.19995 4.00037 1.19995Z" stroke="black" stroke-width="1.6" stroke-linejoin="round"/>
<path d="M4.09998 1.19995H49.4C50.9 1.19995 52 2.49994 52 3.99994V10.8999C52 12.3999 50.9 13.5999 49.4 13.5999H4.09998C2.69998 13.5999 1.5 12.3999 1.5 10.8999V3.99994C1.5 2.49994 2.69998 1.19995 4.09998 1.19995Z" fill="white"/>
<path d="M4.09998 1.19995H49.4C50.9 1.19995 52 2.49994 52 3.99994V10.8999C52 12.3999 50.9 13.5999 49.4 13.5999H4.09998C2.69998 13.5999 1.5 12.3999 1.5 10.8999V3.99994C1.5 2.49994 2.69998 1.19995 4.09998 1.19995Z" stroke="black" stroke-width="1.6" stroke-linejoin="round"/>
<path d="M11.7002 6.30005C11.7002 6.30005 17.0002 7.80005 26.8002 7.80005C36.5002 7.80005 41.8002 6.30005 41.8002 6.30005C42.7002 6.30005 43.4001 6.70007 43.4001 7.20007C43.4001 7.20007 42.6001 11.5 42.6001 16.8C42.6001 22 43.4001 26.5001 43.4001 26.5001C43.4001 27.0001 42.7002 27.5001 41.8002 27.5001C41.8002 27.5001 35.8001 25.9001 26.9001 25.9001C17.9001 25.9001 11.7002 27.5001 11.7002 27.5001C10.8002 27.5001 10.2002 27.0001 10.2002 26.5001C10.2002 26.5001 11.1001 22.0001 11.0001 16.9001C10.9001 11.7001 10.2002 7.20007 10.2002 7.20007C10.2002 6.70007 10.8002 6.30005 11.7002 6.30005Z" fill="white"/>
<path d="M11.7002 6.30005C11.7002 6.30005 17.0002 7.80005 26.8002 7.80005C36.5002 7.80005 41.8002 6.30005 41.8002 6.30005C42.7002 6.30005 43.4001 6.70007 43.4001 7.20007C43.4001 7.20007 42.6001 11.5 42.6001 16.8C42.6001 22 43.4001 26.5001 43.4001 26.5001C43.4001 27.0001 42.7002 27.5001 41.8002 27.5001C41.8002 27.5001 35.8001 25.9001 26.9001 25.9001C17.9001 25.9001 11.7002 27.5001 11.7002 27.5001C10.8002 27.5001 10.2002 27.0001 10.2002 26.5001C10.2002 26.5001 11.1001 22.1001 11.0001 16.9001C10.9001 11.7001 10.2002 7.20007 10.2002 7.20007C10.2002 6.70007 10.8002 6.30005 11.7002 6.30005Z" stroke="black" stroke-width="1.6" stroke-linejoin="round"/>
</svg>
