<svg width="96" height="90" viewBox="0 0 96 90" fill="none" preserveAspectRatio="none" xmlns="http://www.w3.org/2000/svg">
<path d="M68.9 8.6L87.4 27L72.1 42.2L53.4 24.1L68.9 8.6ZM66.8 6.5L89.5 29.1C90.7 30.4 92.8 30.4 94.1 29.1C95.3 27.8 95.3 25.8 94.1 24.5L71.4 1.9C70.1 0.7 68 0.7 66.8 1.9C65.5 3.2 65.5 5.2 66.8 6.5ZM27.1 80.9L8.6 62.4L26.3 44.8L45.1 63.6L27.1 80.9ZM29.2 82.9L6.5 60.4C5.3 59.1 3.2 59.1 1.9 60.4C0.7 61.6 0.7 63.7 1.9 64.9L24.6 87.5C25.9 88.8 28 88.8 29.2 87.5C30.5 86.2 30.5 84.2 29.2 82.9ZM86.6 63L68.1 81.4L51.8 65.2L70.5 46.5L86.6 63ZM88.7 60.9L66 83.5C64.7 84.8 64.7 86.8 66 88.1C67.2 89.3 69.3 89.3 70.6 88.1L93.2 65.5C94.5 64.2 94.5 62.2 93.2 60.9C92 59.6 89.9 59.6 88.7 60.9ZM10.2 27L28.7 8.6L44.6 24.3L25.9 42.6L10.2 27ZM8.1 29.1L30.8 6.5C32.1 5.2 32.1 3.2 30.8 1.9C29.6 0.7 27.5 0.7 26.3 1.9L3.6 24.5C2.3 25.8 2.3 27.8 3.6 29.1C4.8 30.4 6.9 30.4 8.1 29.1Z" fill="white" stroke="#2C2C2C"/>
<path d="M14.9503 45.0044C14.9503 26.8044 29.7503 12.1044 47.9503 12.1044C66.2503 12.1044 81.0503 26.8044 81.0503 45.0044C81.0503 63.2044 66.2503 77.9044 47.9503 77.9044C29.7503 77.9044 14.9503 63.2044 14.9503 45.0044Z" fill="white" stroke="#2C2C2C"/>
</svg>
