<svg width="103" height="38" viewBox="0 0 103 38" fill="none" preserveAspectRatio="none" xmlns="http://www.w3.org/2000/svg">
<path d="M37.1198 19.1563C37.2237 16.4242 38.1293 13.7833 39.7228 11.5616C41.3164 9.33996 43.5276 7.63599 46.0822 6.6617C48.6368 5.68742 51.4217 5.48587 54.09 6.08211C56.7583 6.67836 59.1922 8.04572 61.089 10.0147C62.9859 11.9837 64.2622 14.4672 64.7585 17.1558C65.2548 19.8445 64.9494 22.6198 63.8805 25.1363C62.8117 27.6528 61.0263 29.7996 58.7468 31.3092C56.4672 32.8188 53.7943 33.6246 51.0602 33.6265C49.1945 33.5927 47.3533 33.1916 45.6427 32.4459C43.9322 31.7002 42.3856 30.6247 41.091 29.2808C39.7963 27.937 38.7792 26.351 38.0978 24.6138C37.4165 22.8767 37.084 21.022 37.1198 19.1563Z" fill="white"/>
<path d="M37.1198 19.1563C37.2237 16.4242 38.1293 13.7833 39.7228 11.5616C41.3164 9.33996 43.5276 7.63599 46.0822 6.6617C48.6368 5.68742 51.4217 5.48587 54.09 6.08211C56.7583 6.67836 59.1922 8.04572 61.089 10.0147C62.9859 11.9837 64.2622 14.4672 64.7585 17.1558C65.2548 19.8445 64.9494 22.6198 63.8805 25.1363C62.8117 27.6528 61.0263 29.7996 58.7468 31.3092C56.4672 32.8187 53.7943 33.6246 51.0602 33.6265C49.1945 33.5927 47.3533 33.1916 45.6427 32.4459C43.9322 31.7002 42.3856 30.6247 41.091 29.2808C39.7963 27.937 38.7792 26.351 38.0978 24.6138C37.4165 22.8767 37.084 21.022 37.1198 19.1563Z" stroke="#2C2C2C" stroke-width="0.75" stroke-linejoin="round"/>
<path d="M88.0697 25.4365C86.7997 27.9265 93.7498 31.1465 93.7498 31.1465C93.7498 31.1465 100.93 28.9563 100.67 18.2363C100.2 10.4063 92.6697 6.70654 92.6697 6.70654C92.6697 6.70654 86.6696 10.4366 88.0096 11.7866C89.3496 13.1366 88.8897 23.8365 88.0697 25.4365Z" fill="white"/>
<path d="M88.0697 25.4365C86.7997 27.9265 93.7498 31.1465 93.7498 31.1465C93.7498 31.1465 100.93 28.9563 100.67 18.2363C100.2 10.4063 92.6697 6.70654 92.6697 6.70654C92.6697 6.70654 86.6696 10.4364 88.0096 11.7764C89.3496 13.1164 88.8897 23.8365 88.0697 25.4365Z" stroke="#2C2C2C" stroke-width="0.75" stroke-linejoin="round"/>
<path d="M77.0697 35.1665C76.6797 37.9464 71.6299 37.4862 72.2499 32.6962C72.8699 27.9062 78.6298 30.3662 78.6298 30.3662C78.6298 30.3662 97.6298 36.7265 98.1098 20.4965C98.5898 4.26653 85.3899 5.09622 78.0399 8.42622C73.4299 10.5162 72.1698 8.17616 71.8598 6.61616C71.1498 3.00616 74.8599 0.78655 76.4799 2.76655C78.0999 4.74655 75.3798 6.18647 75.3798 6.18647C75.3798 6.18647 85.8297 1.34635 92.3197 4.06635C98.4097 6.61635 101.69 12.3862 101.66 19.6962C101.63 27.0062 98.8599 31.5562 92.2099 34.1962C89.6471 35.0037 86.9293 35.1925 84.2797 34.7465C71.6197 31.9365 77.4497 32.3864 77.0697 35.1665Z" fill="white"/>
<path d="M77.0697 35.1663C76.6797 37.9463 71.6299 37.4861 72.2499 32.6961C72.8699 27.9061 78.6298 30.366 78.6298 30.366C78.6298 30.366 97.6298 36.7264 98.1098 20.4964C98.5898 4.2664 85.3899 5.09609 78.0399 8.42608C73.4299 10.5161 72.1698 8.17603 71.8598 6.61603C71.1498 3.00603 74.8599 0.776417 76.4799 2.76642C78.0999 4.75642 75.3798 6.18634 75.3798 6.18634C75.3798 6.18634 85.8297 1.34622 92.3197 4.06622C98.4097 6.61622 101.69 12.3861 101.66 19.6961C101.63 27.0061 98.8599 31.5561 92.2099 34.1961C89.6471 35.0035 86.9293 35.1923 84.2797 34.7464C71.6197 31.9364 77.4497 32.3863 77.0697 35.1663Z" stroke="#2C2C2C" stroke-width="0.75" stroke-linejoin="round"/>
<path d="M90.9499 13.6762C92.0276 15.618 92.5077 17.8351 92.3297 20.0488C92.1518 22.2625 91.324 24.3744 89.9499 26.1191C88.5757 27.8638 86.717 29.1632 84.6066 29.8549C82.4962 30.5467 80.2283 30.5996 78.088 30.0068C75.9478 29.414 74.0306 28.2022 72.5768 26.5234C71.123 24.8446 70.1974 22.7738 69.9166 20.5708C69.6359 18.3677 70.0119 16.1309 70.9982 14.1411C71.9844 12.1512 73.5369 10.4968 75.4601 9.38619C78.0834 7.90223 81.1883 7.52072 84.0929 8.32515C86.9975 9.12959 89.4638 11.0542 90.9499 13.6762Z" fill="white"/>
<path d="M90.9499 13.6762C92.0276 15.618 92.5077 17.8351 92.3297 20.0488C92.1518 22.2625 91.324 24.3744 89.9499 26.1191C88.5757 27.8638 86.717 29.1632 84.6066 29.8549C82.4962 30.5467 80.2283 30.5996 78.088 30.0068C75.9478 29.414 74.0306 28.2022 72.5768 26.5234C71.123 24.8446 70.1974 22.7738 69.9166 20.5708C69.6359 18.3677 70.0119 16.1309 70.9982 14.1411C71.9844 12.1512 73.5369 10.4968 75.4601 9.38619C78.0834 7.90223 81.1883 7.52072 84.0929 8.32515C86.9975 9.12959 89.4638 11.0542 90.9499 13.6762Z" stroke="#2C2C2C" stroke-width="0.75" stroke-linejoin="round"/>
<path d="M94.1392 12.2666C93.4863 12.5892 92.8728 12.9848 92.3096 13.4463C91.7996 13.9563 91.3691 14.4463 91.3691 14.4463M95.6592 19.1665H92.3691M94.5396 25.9663C94.018 25.8884 93.5269 25.6708 93.1191 25.3364C92.1991 24.7164 91.5793 23.8866 91.7393 23.9766" stroke="#2C2C2C" stroke-width="0.75" stroke-linejoin="round"/>
<path d="M14.5894 24.4062C15.8494 26.9062 8.90924 30.1265 8.90924 30.1265C8.90924 30.1265 1.72932 27.9363 1.98932 17.2163C2.45932 9.38631 9.98932 5.68652 9.98932 5.68652C9.98932 5.68652 15.9895 9.40635 14.6495 10.7563C13.3095 12.1063 13.7694 22.8162 14.5894 24.4062Z" fill="white"/>
<path d="M14.5894 24.4062C15.8494 26.9062 8.90924 30.1265 8.90924 30.1265C8.90924 30.1265 1.72932 27.9363 1.98932 17.2163C2.45932 9.38631 9.98932 5.68652 9.98932 5.68652C9.98932 5.68652 15.9895 9.40635 14.6495 10.7563C13.3095 12.1063 13.7694 22.8162 14.5894 24.4062Z" stroke="#2C2C2C" stroke-width="0.75" stroke-linejoin="round"/>
<path d="M25.59 34.1464C25.98 36.9264 31.0299 36.4662 30.4099 31.6762C29.7899 26.8862 24.03 29.3461 24.03 29.3461C24.03 29.3461 5.03001 35.7063 4.55001 19.4663C4.07001 3.22626 17.2598 4.0662 24.6198 7.4062C29.2298 9.4962 30.49 7.14637 30.8 5.58637C31.51 1.98637 27.7999 -0.243469 26.1799 1.74653C24.5599 3.73653 27.28 5.16645 27.28 5.16645C27.28 5.16645 16.83 0.326336 10.34 3.04634C4.25005 5.59634 0.970204 11.3565 1.0002 18.6665C1.0302 25.9765 3.79991 30.5365 10.4499 33.1665C13.011 33.9827 15.7309 34.1711 18.3801 33.7163C31.0401 30.9163 25.21 31.3664 25.59 34.1464Z" fill="white"/>
<path d="M25.59 34.1464C25.98 36.9264 31.0299 36.4665 30.4099 31.6665C29.7899 26.8665 24.03 29.3461 24.03 29.3461C24.03 29.3461 5.03001 35.7063 4.55001 19.4663C4.07001 3.22626 17.2698 4.0662 24.6198 7.4062C29.2298 9.4962 30.49 7.14637 30.8 5.58637C31.51 1.98637 27.7999 -0.243469 26.1799 1.74653C24.5599 3.73653 27.28 5.16645 27.28 5.16645C27.28 5.16645 16.83 0.326336 10.34 3.04634C4.25005 5.59634 0.970204 11.3565 1.0002 18.6665C1.0302 25.9765 3.79991 30.5365 10.4499 33.1665C13.011 33.9827 15.7309 34.1711 18.3801 33.7163C31.0401 30.9163 25.21 31.3664 25.59 34.1464Z" stroke="#2C2C2C" stroke-width="0.75" stroke-linejoin="round"/>
<path d="M11.7306 12.6562C10.6528 14.598 10.1728 16.8151 10.3507 19.0288C10.5286 21.2425 11.3565 23.3544 12.7306 25.0991C14.1047 26.8438 15.9635 28.1432 18.0738 28.8349C20.1842 29.5267 22.4521 29.5795 24.5924 28.9868C26.7327 28.394 28.6498 27.1822 30.1036 25.5034C31.5574 23.8245 32.483 21.7538 32.7638 19.5507C33.0446 17.3477 32.6685 15.1109 31.6822 13.1211C30.696 11.1312 29.1435 9.47682 27.2203 8.36617C24.5971 6.88221 21.4921 6.5007 18.5875 7.30513C15.6829 8.10957 13.2167 10.0341 11.7306 12.6562Z" fill="white"/>
<path d="M11.7306 12.6562C10.6528 14.598 10.1728 16.8151 10.3507 19.0288C10.5286 21.2425 11.3565 23.3544 12.7306 25.0991C14.1047 26.8438 15.9635 28.1432 18.0738 28.8349C20.1842 29.5267 22.4521 29.5795 24.5924 28.9868C26.7327 28.394 28.6498 27.1822 30.1036 25.5034C31.5574 23.8245 32.483 21.7538 32.7638 19.5507C33.0446 17.3477 32.6685 15.1109 31.6822 13.1211C30.696 11.1312 29.1435 9.47682 27.2203 8.36617C24.5971 6.88221 21.4921 6.5007 18.5875 7.30513C15.6829 8.10957 13.2167 10.0341 11.7306 12.6562Z" stroke="#2C2C2C" stroke-width="0.75" stroke-linejoin="round"/>
<path d="M8.59033 11.2466C9.24315 11.5692 9.85719 11.9647 10.4204 12.4263C10.9304 12.9363 11.3604 13.4263 11.3604 13.4263M7.07031 18.1465H10.3604M8.19043 24.9463C8.71197 24.8684 9.20259 24.6508 9.61035 24.3164C10.5304 23.6864 11.1502 22.8663 10.9902 22.9463" stroke="#2C2C2C" stroke-width="0.75" stroke-linejoin="round"/>
</svg>
