<svg width="140" height="90" viewBox="0 0 140 90" fill="none" preserveAspectRatio="none" xmlns="http://www.w3.org/2000/svg">
<path d="M78 1H105.9V31.2H78V1ZM78 89H105.9V58.8H78V89ZM30.8 32.2V60.5H1V32.2H30.8ZM109.2 32.2V60.5H139V32.2H109.2ZM32 1H60V31.2H32V1ZM32 89H60V58.8H32V89Z" fill="white"/>
<path d="M78.2 7.4H106.2M78.2 82.6H106.2M8.3 32.2V60M131.7 32.2V60M32.3 7.4H60.3M32.3 82.6H60.3M78 1H105.9V31.2H78V1ZM78 89H105.9V58.8H78V89ZM30.8 32.2V60.5H1V32.2H30.8ZM109.2 32.2V60.5H139V32.2H109.2ZM32 1H60V31.2H32V1ZM32 89H60V58.8H32V89Z" stroke="#2C2C2C"/>
<path d="M19.9106 16.9182H120.111V73.8182H19.9106V16.9182Z" fill="white" stroke="#2C2C2C"/>
</svg>
