<svg width="122" height="77" viewBox="0 0 122 77" fill="none" preserveAspectRatio="none" xmlns="http://www.w3.org/2000/svg">
<g id="shape82">
<path id="Vector" d="M8.08643 54H113.886V76H8.08643V54ZM8.08643 54V76H1.08643V54H8.08643ZM113.886 54H120.886V76H113.886V54ZM113.886 54V1.09998H106.886V54H113.886ZM8.08643 54V1.09998H15.0864V54H8.08643Z" fill="white"/>
<path id="Vector_2" d="M113.886 1.09998C84.6864 1.09998 60.9864 24.8 60.9864 54C60.9864 24.8 37.2864 1.09998 8.08643 1.09998M113.886 1.09998V54M113.886 1.09998H106.886V54H113.886M8.08643 54V76H1.08643V54H8.08643ZM8.08643 54V1.09998M8.08643 54H15.0864V1.09998H8.08643M113.886 54H120.886V76H113.886V54Z" stroke="white"/>
</g>
</svg>
