<svg width="278" height="300" viewBox="0 0 278 300" fill="none" preserveAspectRatio="none" xmlns="http://www.w3.org/2000/svg">
<path d="M2.00009 22L0.00882917 22.1868C-0.0437507 21.6263 0.142297 21.0697 0.521299 20.6535C0.900301 20.2372 1.43716 20 2.00009 20L2.00009 22ZM258 278L260 278C260 279.105 259.105 280 258 280L258 278ZM258 22L258 20C259.105 20 260 20.8954 260 22L258 22ZM6.92316 20C8.02773 20 8.92316 20.8954 8.92316 22C8.92316 23.1046 8.02773 24 6.92316 24L6.92316 20ZM16.7693 24C15.6647 24 14.7693 23.1046 14.7693 22C14.7693 20.8954 15.6647 20 16.7693 20L16.7693 24ZM26.6155 20C27.72 20 28.6155 20.8954 28.6155 22C28.6155 23.1046 27.72 24 26.6155 24L26.6155 20ZM36.4616 24C35.3571 24 34.4616 23.1046 34.4616 22C34.4616 20.8954 35.3571 20 36.4616 20L36.4616 24ZM46.3078 20C47.4124 20 48.3078 20.8954 48.3078 22C48.3078 23.1046 47.4124 24 46.3078 24L46.3078 20ZM56.1539 24C55.0494 24 54.1539 23.1046 54.1539 22C54.1539 20.8954 55.0494 20 56.1539 20L56.1539 24ZM66.0001 20C67.1047 20 68.0001 20.8954 68.0001 22C68.0001 23.1046 67.1047 24 66.0001 24L66.0001 20ZM75.8462 24C74.7417 24 73.8462 23.1046 73.8462 22C73.8462 20.8954 74.7417 20 75.8462 20L75.8462 24ZM85.6924 20C86.797 20 87.6924 20.8954 87.6924 22C87.6924 23.1046 86.797 24 85.6924 24L85.6924 20ZM95.5385 24C94.434 24 93.5385 23.1046 93.5385 22C93.5385 20.8954 94.434 20 95.5385 20L95.5385 24ZM105.385 20C106.489 20 107.385 20.8954 107.385 22C107.385 23.1046 106.489 24 105.385 24L105.385 20ZM115.231 24C114.126 24 113.231 23.1046 113.231 22C113.231 20.8954 114.126 20 115.231 20L115.231 24ZM125.077 20C126.182 20 127.077 20.8954 127.077 22C127.077 23.1046 126.182 24 125.077 24L125.077 20ZM134.923 24C133.819 24 132.923 23.1046 132.923 22C132.923 20.8954 133.819 20 134.923 20L134.923 24ZM144.769 20C145.874 20 146.769 20.8954 146.769 22C146.769 23.1046 145.874 24 144.769 24L144.769 20ZM154.615 24C153.511 24 152.615 23.1046 152.615 22C152.615 20.8954 153.511 20 154.615 20L154.615 24ZM164.462 20C165.566 20 166.462 20.8954 166.462 22C166.462 23.1046 165.566 24 164.462 24L164.462 20ZM174.308 24C173.203 24 172.308 23.1046 172.308 22C172.308 20.8954 173.203 20 174.308 20L174.308 24ZM184.154 20C185.259 20 186.154 20.8954 186.154 22C186.154 23.1046 185.259 24 184.154 24L184.154 20ZM194 24C192.896 24 192 23.1046 192 22C192 20.8954 192.896 20 194 20L194 24ZM203.846 20C204.951 20 205.846 20.8954 205.846 22C205.846 23.1046 204.951 24 203.846 24L203.846 20ZM213.692 24C212.588 24 211.692 23.1046 211.692 22C211.692 20.8954 212.588 20 213.692 20L213.692 24ZM223.539 20C224.643 20 225.539 20.8954 225.539 22C225.539 23.1046 224.643 24 223.539 24L223.539 20ZM233.385 24C232.28 24 231.385 23.1046 231.385 22C231.385 20.8954 232.28 20 233.385 20L233.385 24ZM243.231 20C244.336 20 245.231 20.8954 245.231 22C245.231 23.1046 244.336 24 243.231 24L243.231 20ZM253.077 24C251.973 24 251.077 23.1046 251.077 22C251.077 20.8954 251.973 20 253.077 20L253.077 24ZM260 26.9231C260 28.0277 259.105 28.9231 258 28.9231C256.896 28.9231 256 28.0277 256 26.9231L260 26.9231ZM256 36.7692C256 35.6647 256.896 34.7692 258 34.7692C259.105 34.7692 260 35.6647 260 36.7692L256 36.7692ZM260 46.6154C260 47.72 259.105 48.6154 258 48.6154C256.896 48.6154 256 47.72 256 46.6154L260 46.6154ZM256 56.4616C256 55.357 256.896 54.4616 258 54.4616C259.105 54.4616 260 55.357 260 56.4616L256 56.4616ZM260 66.3077C260 67.4123 259.105 68.3077 258 68.3077C256.896 68.3077 256 67.4123 256 66.3077L260 66.3077ZM256 76.1539C256 75.0493 256.896 74.1539 258 74.1539C259.105 74.1539 260 75.0493 260 76.1539L256 76.1539ZM260 86C260 87.1046 259.105 88 258 88C256.896 88 256 87.1046 256 86L260 86ZM256 95.8462C256 94.7416 256.896 93.8462 258 93.8462C259.105 93.8462 260 94.7416 260 95.8462L256 95.8462ZM260 105.692C260 106.797 259.105 107.692 258 107.692C256.896 107.692 256 106.797 256 105.692L260 105.692ZM256 115.538C256 114.434 256.896 113.538 258 113.538C259.105 113.538 260 114.434 260 115.538L256 115.538ZM260 125.385C260 126.489 259.105 127.385 258 127.385C256.896 127.385 256 126.489 256 125.385L260 125.385ZM256 135.231C256 134.126 256.896 133.231 258 133.231C259.105 133.231 260 134.126 260 135.231L256 135.231ZM260 145.077C260 146.181 259.105 147.077 258 147.077C256.896 147.077 256 146.181 256 145.077L260 145.077ZM256 154.923C256 153.819 256.896 152.923 258 152.923C259.105 152.923 260 153.819 260 154.923L256 154.923ZM260 164.769C260 165.874 259.105 166.769 258 166.769C256.896 166.769 256 165.874 256 164.769L260 164.769ZM256 174.615C256 173.511 256.896 172.615 258 172.615C259.105 172.615 260 173.511 260 174.615L256 174.615ZM260 184.462C260 185.566 259.105 186.462 258 186.462C256.896 186.462 256 185.566 256 184.462L260 184.462ZM256 194.308C256 193.203 256.896 192.308 258 192.308C259.105 192.308 260 193.203 260 194.308L256 194.308ZM260 204.154C260 205.258 259.105 206.154 258 206.154C256.896 206.154 256 205.258 256 204.154L260 204.154ZM256 214C256 212.895 256.896 212 258 212C259.105 212 260 212.895 260 214L256 214ZM260 223.846C260 224.951 259.105 225.846 258 225.846C256.896 225.846 256 224.951 256 223.846L260 223.846ZM256 233.692C256 232.588 256.896 231.692 258 231.692C259.105 231.692 260 232.588 260 233.692L256 233.692ZM260 243.539C260 244.643 259.105 245.539 258 245.539C256.896 245.539 256 244.643 256 243.539L260 243.539ZM256 253.385C256 252.28 256.896 251.385 258 251.385C259.105 251.385 260 252.28 260 253.385L256 253.385ZM260 263.231C260 264.335 259.105 265.231 258 265.231C256.896 265.231 256 264.335 256 263.231L260 263.231ZM256 273.077C256 271.972 256.896 271.077 258 271.077C259.105 271.077 260 271.972 260 273.077L256 273.077ZM252.979 279.947C251.875 279.924 250.998 279.01 251.022 277.905C251.045 276.801 251.959 275.925 253.063 275.948L252.979 279.947ZM243.236 275.533C244.339 275.603 245.176 276.554 245.106 277.656C245.036 278.758 244.086 279.595 242.983 279.525L243.236 275.533ZM233.015 278.681C231.917 278.565 231.121 277.58 231.238 276.481C231.354 275.383 232.339 274.587 233.437 274.704L233.015 278.681ZM223.669 273.456C224.762 273.62 225.515 274.637 225.352 275.73C225.189 276.822 224.171 277.576 223.078 277.412L223.669 273.456ZM213.208 275.722C212.124 275.513 211.414 274.464 211.624 273.379C211.833 272.295 212.882 271.585 213.967 271.795L213.208 275.722ZM204.347 269.723C205.422 269.978 206.086 271.056 205.83 272.131C205.575 273.206 204.496 273.87 203.422 273.614L204.347 269.723ZM193.736 271.093C192.673 270.793 192.055 269.687 192.356 268.624C192.656 267.562 193.762 266.944 194.825 267.244L193.736 271.093ZM185.415 264.366C186.464 264.712 187.035 265.842 186.69 266.891C186.345 267.94 185.214 268.511 184.165 268.166L185.415 264.366ZM174.724 264.839C173.69 264.45 173.167 263.297 173.556 262.263C173.945 261.229 175.098 260.706 176.132 261.095L174.724 264.839ZM166.992 257.439C168.009 257.87 168.484 259.044 168.052 260.061C167.621 261.078 166.447 261.553 165.43 261.121L166.992 257.439ZM156.299 257.024C155.301 256.551 154.875 255.358 155.347 254.36C155.82 253.362 157.013 252.936 158.011 253.409L156.299 257.024ZM149.202 249.015C150.18 249.528 150.557 250.737 150.044 251.715C149.531 252.693 148.322 253.07 147.344 252.557L149.202 249.015ZM138.577 247.733C137.621 247.181 137.292 245.958 137.844 245.001C138.396 244.044 139.619 243.716 140.576 244.268L138.577 247.733ZM132.145 239.179C133.079 239.768 133.358 241.003 132.769 241.937C132.18 242.871 130.944 243.151 130.01 242.561L132.145 239.179ZM121.655 237.057C120.745 236.431 120.514 235.186 121.14 234.276C121.765 233.365 123.01 233.135 123.921 233.76L121.655 237.057ZM115.915 228.027C116.8 228.687 116.983 229.94 116.322 230.825C115.662 231.711 114.409 231.893 113.523 231.233L115.915 228.027ZM105.622 225.101C104.763 224.407 104.629 223.148 105.322 222.288C106.016 221.429 107.275 221.294 108.135 221.988L105.622 225.101ZM100.588 215.657C101.421 216.383 101.507 217.646 100.782 218.479C100.056 219.312 98.7926 219.398 97.9599 218.673L100.588 215.657ZM90.5434 211.961C89.7383 211.205 89.6987 209.939 90.455 209.134C91.2113 208.329 92.477 208.289 93.282 209.046L90.5434 211.961ZM86.224 202.166C87.0006 202.951 86.9936 204.218 86.2082 204.994C85.4228 205.771 84.1564 205.764 83.3798 204.978L86.224 202.166ZM76.481 197.743C75.7334 196.93 75.7865 195.665 76.5997 194.917C77.4128 194.169 78.678 194.223 79.4256 195.036L76.481 197.743ZM72.8896 187.664C73.6075 188.504 73.5089 189.766 72.6694 190.484C71.8299 191.202 70.5674 191.103 69.8495 190.264L72.8896 187.664ZM63.4891 182.552C62.8015 181.687 62.945 180.429 63.8095 179.742C64.674 179.054 65.9322 179.197 66.6197 180.062L63.4891 182.552ZM60.6208 172.24C61.2775 173.128 61.0899 174.38 60.2017 175.037C59.3135 175.694 58.0612 175.506 57.4045 174.618L60.6208 172.24ZM51.6003 166.474C50.9749 165.564 51.2061 164.319 52.1166 163.693C53.0271 163.068 54.2722 163.299 54.8975 164.21L51.6003 166.474ZM49.4585 155.989C50.0521 156.921 49.778 158.157 48.8465 158.751C47.9149 159.344 46.6786 159.07 46.0851 158.139L49.4585 155.989ZM40.8617 149.622C40.3004 148.671 40.6165 147.445 41.5678 146.883C42.5192 146.322 43.7454 146.638 44.3067 147.589L40.8617 149.622ZM39.4422 139.016C39.971 139.986 39.6134 141.2 38.6436 141.729C37.6738 142.258 36.459 141.9 35.9303 140.931L39.4422 139.016ZM31.294 132.075C30.7982 131.088 31.1965 129.886 32.1835 129.39C33.1706 128.894 34.3726 129.292 34.8684 130.279L31.294 132.075ZM30.5882 121.39C31.0507 122.393 30.6125 123.581 29.6094 124.044C28.6064 124.506 27.4183 124.068 26.9558 123.065L30.5882 121.39ZM22.9246 113.926C22.4956 112.908 22.9729 111.735 23.9908 111.306C25.0087 110.877 26.1816 111.355 26.6106 112.373L22.9246 113.926ZM22.9328 103.228C23.3281 104.259 22.8123 105.416 21.7809 105.811C20.7494 106.206 19.5929 105.691 19.1977 104.659L22.9328 103.228ZM15.7757 95.2711C15.4145 94.2273 15.9679 93.0883 17.0117 92.727C18.0555 92.3658 19.1945 92.9191 19.5558 93.963L15.7757 95.2711ZM16.4813 84.5872C16.8084 85.6422 16.2182 86.7626 15.1632 87.0897C14.1081 87.4167 12.9877 86.8265 12.6607 85.7715L16.4813 84.5872ZM9.85704 76.1804C9.5643 75.1154 10.1904 74.0146 11.2555 73.7219C12.3206 73.4292 13.4213 74.0553 13.714 75.1204L9.85704 76.1804ZM11.2554 65.5767C11.5138 66.6507 10.8526 67.7307 9.77866 67.989C8.70473 68.2474 7.62471 67.5862 7.36636 66.5123L11.2554 65.5767ZM5.18576 56.7637C4.9619 55.6821 5.65727 54.6238 6.73892 54.3999C7.82056 54.176 8.87889 54.8714 9.10275 55.9531L5.18576 56.7637ZM7.25677 46.2581C7.4461 47.3463 6.7174 48.382 5.62918 48.5713C4.54096 48.7606 3.5053 48.0319 3.31597 46.9437L7.25677 46.2581ZM1.75931 37.0737C1.60449 35.98 2.36557 34.9679 3.45924 34.8131C4.5529 34.6583 5.565 35.4193 5.71982 36.513L1.75931 37.0737ZM4.49203 26.7349C4.61244 27.8329 3.81996 28.8206 2.72197 28.941C1.62398 29.0614 0.636277 28.269 0.515866 27.171L4.49203 26.7349ZM2.00009 20L6.92316 20L6.92316 24L2.00009 24L2.00009 20ZM16.7693 20L26.6155 20L26.6155 24L16.7693 24L16.7693 20ZM36.4616 20L46.3078 20L46.3078 24L36.4616 24L36.4616 20ZM56.1539 20L66.0001 20L66.0001 24L56.1539 24L56.1539 20ZM75.8462 20L85.6924 20L85.6924 24L75.8462 24L75.8462 20ZM95.5385 20L105.385 20L105.385 24L95.5385 24L95.5385 20ZM115.231 20L125.077 20L125.077 24L115.231 24L115.231 20ZM134.923 20L144.769 20L144.769 24L134.923 24L134.923 20ZM154.615 20L164.462 20L164.462 24L154.615 24L154.615 20ZM174.308 20L184.154 20L184.154 24L174.308 24L174.308 20ZM194 20L203.846 20L203.846 24L194 24L194 20ZM213.692 20L223.539 20L223.539 24L213.692 24L213.692 20ZM233.385 20L243.231 20L243.231 24L233.385 24L233.385 20ZM253.077 20L258 20L258 24L253.077 24L253.077 20ZM260 22L260 26.9231L256 26.9231L256 22L260 22ZM260 36.7692L260 46.6154L256 46.6154L256 36.7692L260 36.7692ZM260 56.4616L260 66.3077L256 66.3077L256 56.4616L260 56.4616ZM260 76.1539L260 86L256 86L256 76.1539L260 76.1539ZM260 95.8462L260 105.692L256 105.692L256 95.8462L260 95.8462ZM260 115.538L260 125.385L256 125.385L256 115.538L260 115.538ZM260 135.231L260 145.077L256 145.077L256 135.231L260 135.231ZM260 154.923L260 164.769L256 164.769L256 154.923L260 154.923ZM260 174.615L260 184.462L256 184.462L256 174.615L260 174.615ZM260 194.308L260 204.154L256 204.154L256 194.308L260 194.308ZM260 214L260 223.846L256 223.846L256 214L260 214ZM260 233.692L260 243.539L256 243.539L256 233.692L260 233.692ZM260 253.385L260 263.231L256 263.231L256 253.385L260 253.385ZM260 273.077L260 278L256 278L256 273.077L260 273.077ZM258 280C256.323 280 254.649 279.982 252.979 279.947L253.063 275.948C254.705 275.983 256.351 276 258 276L258 280ZM242.983 279.525C239.643 279.314 236.32 279.032 233.015 278.681L233.437 274.704C236.686 275.048 239.953 275.325 243.236 275.533L242.983 279.525ZM223.078 277.412C219.768 276.918 216.477 276.354 213.208 275.722L213.967 271.795C217.181 272.416 220.415 272.97 223.669 273.456L223.078 277.412ZM203.422 273.614C200.17 272.841 196.941 272 193.736 271.093L194.825 267.244C197.976 268.136 201.15 268.963 204.347 269.723L203.422 273.614ZM184.165 268.166C180.992 267.122 177.845 266.012 174.724 264.839L176.132 261.095C179.201 262.249 182.296 263.34 185.415 264.366L184.165 268.166ZM165.43 261.121C162.358 259.818 159.314 258.452 156.299 257.024L158.011 253.409C160.976 254.813 163.971 256.157 166.992 257.439L165.43 261.121ZM147.344 252.557C144.391 251.009 141.468 249.4 138.577 247.733L140.576 244.268C143.42 245.908 146.296 247.491 149.202 249.015L147.344 252.557ZM130.01 242.561C127.192 240.783 124.406 238.948 121.655 237.057L123.921 233.76C126.629 235.622 129.371 237.428 132.145 239.179L130.01 242.561ZM113.523 231.233C110.854 229.242 108.22 227.197 105.622 225.101L108.135 221.988C110.693 224.053 113.287 226.066 115.915 228.027L113.523 231.233ZM97.9599 218.673C95.45 216.485 92.9774 214.248 90.5434 211.961L93.282 209.046C95.68 211.298 98.1157 213.502 100.588 215.657L97.9599 218.673ZM83.3798 204.978C81.0406 202.613 78.7406 200.201 76.481 197.743L79.4256 195.036C81.6525 197.458 83.919 199.835 86.224 202.166L83.3798 204.978ZM69.8495 190.264C67.6881 187.736 65.5675 185.165 63.4891 182.552L66.6197 180.062C68.6687 182.638 70.7591 185.173 72.8896 187.664L69.8495 190.264ZM57.4045 174.618C55.4268 171.943 53.4916 169.228 51.6003 166.474L54.8975 164.21C56.7627 166.925 58.6708 169.603 60.6208 172.24L57.4045 174.618ZM46.0851 158.139C44.2996 155.336 42.5581 152.497 40.8617 149.622L44.3067 147.589C45.98 150.425 47.6976 153.225 49.4585 155.989L46.0851 158.139ZM35.9303 140.931C34.3391 138.012 32.7933 135.06 31.294 132.075L34.8684 130.279C36.3476 133.224 37.8726 136.137 39.4422 139.016L35.9303 140.931ZM26.9558 123.065C25.5652 120.049 24.2211 117.002 22.9246 113.926L26.6106 112.373C27.8899 115.408 29.2162 118.414 30.5882 121.39L26.9558 123.065ZM19.1977 104.659C18.0091 101.557 16.8681 98.4276 15.7757 95.2711L19.5558 93.963C20.6339 97.0782 21.7599 100.167 22.9328 103.228L19.1977 104.659ZM12.6607 85.7715C11.6773 82.5991 10.7424 79.4018 9.85704 76.1804L13.714 75.1204C14.5879 78.3001 15.5107 81.456 16.4813 84.5872L12.6607 85.7715ZM7.36636 66.5123C6.58994 63.2847 5.86276 60.0348 5.18576 56.7637L9.10275 55.9531C9.77111 59.1824 10.489 62.3906 11.2554 65.5767L7.36636 66.5123ZM3.31597 46.9437C2.74693 43.673 2.22775 40.3827 1.75931 37.0737L5.71982 36.513C6.18235 39.7803 6.69496 43.029 7.25677 46.2581L3.31597 46.9437ZM0.515866 27.171C0.33414 25.5139 0.165091 23.8524 0.00882917 22.1868L3.99134 21.8132C4.14565 23.458 4.31258 25.0986 4.49203 26.7349L0.515866 27.171Z" fill="white"/>
<g clip-path="url(#clip0_121_333)">
<rect width="300" height="40" transform="matrix(-4.37114e-08 1 1 4.37114e-08 238 0)" fill="white"/>
<path d="M240 2L240 22L276 22L276 2L240 2Z" stroke="#333333" stroke-width="4"/>
<path fill-rule="evenodd" clip-rule="evenodd" d="M253 24L253 276L249 276L249 24L253 24ZM267 24L267 276L263 276L263 24L267 24Z" fill="#333333"/>
<path d="M240 278L240 298L276 298L276 278L240 278Z" stroke="#333333" stroke-width="4"/>
</g>
<rect x="2" y="2" width="296" height="36" transform="matrix(-4.37114e-08 1 1 4.37114e-08 238 8.74228e-08)" stroke="#333333" stroke-width="4"/>
<defs>
<clipPath id="clip0_121_333">
<rect width="300" height="40" transform="matrix(-4.37114e-08 1 1 4.37114e-08 238 0)" fill="white"/>
</clipPath>
</defs>
</svg>
