<svg width="278" height="300" viewBox="0 0 278 300" fill="none" preserveAspectRatio="none" xmlns="http://www.w3.org/2000/svg">
<path d="M276 22L277.991 22.1868C278.044 21.6263 277.858 21.0697 277.479 20.6535C277.1 20.2372 276.563 20 276 20L276 22ZM19.9999 278L17.9999 278C17.9999 279.105 18.8953 280 19.9999 280L19.9999 278ZM19.9999 22L19.9999 20C18.8953 20 17.9999 20.8954 17.9999 22L19.9999 22ZM271.077 20C269.972 20 269.077 20.8954 269.077 22C269.077 23.1046 269.972 24 271.077 24L271.077 20ZM261.231 24C262.335 24 263.231 23.1046 263.231 22C263.231 20.8954 262.335 20 261.231 20L261.231 24ZM251.385 20C250.28 20 249.385 20.8954 249.385 22C249.385 23.1046 250.28 24 251.385 24L251.385 20ZM241.538 24C242.643 24 243.538 23.1046 243.538 22C243.538 20.8954 242.643 20 241.538 20L241.538 24ZM231.692 20C230.588 20 229.692 20.8954 229.692 22C229.692 23.1046 230.588 24 231.692 24L231.692 20ZM221.846 24C222.951 24 223.846 23.1046 223.846 22C223.846 20.8954 222.951 20 221.846 20L221.846 24ZM212 20C210.895 20 210 20.8954 210 22C210 23.1046 210.895 24 212 24L212 20ZM202.154 24C203.258 24 204.154 23.1046 204.154 22C204.154 20.8954 203.258 20 202.154 20L202.154 24ZM192.308 20C191.203 20 190.308 20.8954 190.308 22C190.308 23.1046 191.203 24 192.308 24L192.308 20ZM182.461 24C183.566 24 184.461 23.1046 184.461 22C184.461 20.8954 183.566 20 182.461 20L182.461 24ZM172.615 20C171.511 20 170.615 20.8954 170.615 22C170.615 23.1046 171.511 24 172.615 24L172.615 20ZM162.769 24C163.874 24 164.769 23.1046 164.769 22C164.769 20.8954 163.874 20 162.769 20L162.769 24ZM152.923 20C151.818 20 150.923 20.8954 150.923 22C150.923 23.1046 151.818 24 152.923 24L152.923 20ZM143.077 24C144.181 24 145.077 23.1046 145.077 22C145.077 20.8954 144.181 20 143.077 20L143.077 24ZM133.231 20C132.126 20 131.231 20.8954 131.231 22C131.231 23.1046 132.126 24 133.231 24L133.231 20ZM123.385 24C124.489 24 125.385 23.1046 125.385 22C125.385 20.8954 124.489 20 123.385 20L123.385 24ZM113.538 20C112.434 20 111.538 20.8954 111.538 22C111.538 23.1046 112.434 24 113.538 24L113.538 20ZM103.692 24C104.797 24 105.692 23.1046 105.692 22C105.692 20.8954 104.797 20 103.692 20L103.692 24ZM93.846 20C92.7414 20 91.846 20.8954 91.846 22C91.846 23.1046 92.7414 24 93.846 24L93.846 20ZM83.9999 24C85.1044 24 85.9999 23.1046 85.9999 22C85.9999 20.8954 85.1044 20 83.9999 20L83.9999 24ZM74.1537 20C73.0491 20 72.1537 20.8954 72.1537 22C72.1537 23.1046 73.0491 24 74.1537 24L74.1537 20ZM64.3075 24C65.4121 24 66.3075 23.1046 66.3075 22C66.3075 20.8954 65.4121 20 64.3075 20L64.3075 24ZM54.4614 20C53.3568 20 52.4614 20.8954 52.4614 22C52.4614 23.1046 53.3568 24 54.4614 24L54.4614 20ZM44.6152 24C45.7198 24 46.6152 23.1046 46.6152 22C46.6152 20.8954 45.7198 20 44.6152 20L44.6152 24ZM34.769 20C33.6645 20 32.769 20.8954 32.769 22C32.769 23.1046 33.6645 24 34.769 24L34.769 20ZM24.9229 24C26.0275 24 26.9229 23.1046 26.9229 22C26.9229 20.8954 26.0275 20 24.9229 20L24.9229 24ZM17.9999 26.9231C17.9999 28.0277 18.8953 28.9231 19.9999 28.9231C21.1045 28.9231 21.9999 28.0277 21.9999 26.9231L17.9999 26.9231ZM21.9999 36.7692C21.9999 35.6647 21.1045 34.7692 19.9999 34.7692C18.8953 34.7692 17.9999 35.6647 17.9999 36.7692L21.9999 36.7692ZM17.9999 46.6154C17.9999 47.72 18.8953 48.6154 19.9999 48.6154C21.1045 48.6154 21.9999 47.72 21.9999 46.6154L17.9999 46.6154ZM21.9999 56.4616C21.9999 55.357 21.1045 54.4616 19.9999 54.4616C18.8953 54.4616 17.9999 55.357 17.9999 56.4616L21.9999 56.4616ZM17.9999 66.3077C17.9999 67.4123 18.8953 68.3077 19.9999 68.3077C21.1045 68.3077 21.9999 67.4123 21.9999 66.3077L17.9999 66.3077ZM21.9999 76.1539C21.9999 75.0493 21.1045 74.1539 19.9999 74.1539C18.8953 74.1539 17.9999 75.0493 17.9999 76.1539L21.9999 76.1539ZM17.9999 86C17.9999 87.1046 18.8953 88 19.9999 88C21.1045 88 21.9999 87.1046 21.9999 86L17.9999 86ZM21.9999 95.8462C21.9999 94.7416 21.1045 93.8462 19.9999 93.8462C18.8953 93.8462 17.9999 94.7416 17.9999 95.8462L21.9999 95.8462ZM17.9999 105.692C17.9999 106.797 18.8953 107.692 19.9999 107.692C21.1045 107.692 21.9999 106.797 21.9999 105.692L17.9999 105.692ZM21.9999 115.538C21.9999 114.434 21.1045 113.538 19.9999 113.538C18.8953 113.538 17.9999 114.434 17.9999 115.538L21.9999 115.538ZM17.9999 125.385C17.9999 126.489 18.8953 127.385 19.9999 127.385C21.1045 127.385 21.9999 126.489 21.9999 125.385L17.9999 125.385ZM21.9999 135.231C21.9999 134.126 21.1045 133.231 19.9999 133.231C18.8953 133.231 17.9999 134.126 17.9999 135.231L21.9999 135.231ZM17.9999 145.077C17.9999 146.181 18.8953 147.077 19.9999 147.077C21.1045 147.077 21.9999 146.181 21.9999 145.077L17.9999 145.077ZM21.9999 154.923C21.9999 153.819 21.1045 152.923 19.9999 152.923C18.8953 152.923 17.9999 153.819 17.9999 154.923L21.9999 154.923ZM17.9999 164.769C17.9999 165.874 18.8953 166.769 19.9999 166.769C21.1045 166.769 21.9999 165.874 21.9999 164.769L17.9999 164.769ZM21.9999 174.615C21.9999 173.511 21.1045 172.615 19.9999 172.615C18.8953 172.615 17.9999 173.511 17.9999 174.615L21.9999 174.615ZM17.9999 184.462C17.9999 185.566 18.8953 186.462 19.9999 186.462C21.1045 186.462 21.9999 185.566 21.9999 184.462L17.9999 184.462ZM21.9999 194.308C21.9999 193.203 21.1045 192.308 19.9999 192.308C18.8953 192.308 17.9999 193.203 17.9999 194.308L21.9999 194.308ZM17.9999 204.154C17.9999 205.258 18.8953 206.154 19.9999 206.154C21.1045 206.154 21.9999 205.258 21.9999 204.154L17.9999 204.154ZM21.9999 214C21.9999 212.895 21.1045 212 19.9999 212C18.8953 212 17.9999 212.895 17.9999 214L21.9999 214ZM17.9999 223.846C17.9999 224.951 18.8953 225.846 19.9999 225.846C21.1045 225.846 21.9999 224.951 21.9999 223.846L17.9999 223.846ZM21.9999 233.692C21.9999 232.588 21.1045 231.692 19.9999 231.692C18.8953 231.692 17.9999 232.588 17.9999 233.692L21.9999 233.692ZM17.9999 243.539C17.9999 244.643 18.8953 245.539 19.9999 245.539C21.1045 245.539 21.9999 244.643 21.9999 243.539L17.9999 243.539ZM21.9999 253.385C21.9999 252.28 21.1045 251.385 19.9999 251.385C18.8953 251.385 17.9999 252.28 17.9999 253.385L21.9999 253.385ZM17.9999 263.231C17.9999 264.335 18.8953 265.231 19.9999 265.231C21.1045 265.231 21.9999 264.335 21.9999 263.231L17.9999 263.231ZM21.9999 273.077C21.9999 271.972 21.1045 271.077 19.9999 271.077C18.8953 271.077 17.9999 271.972 17.9999 273.077L21.9999 273.077ZM25.0209 279.947C26.1253 279.924 27.0016 279.01 26.9783 277.905C26.9551 276.801 26.041 275.925 24.9366 275.948L25.0209 279.947ZM34.7638 275.533C33.6615 275.603 32.8245 276.554 32.8943 277.656C32.9642 278.758 33.9145 279.595 35.0168 279.525L34.7638 275.533ZM44.9846 278.681C46.083 278.565 46.8789 277.58 46.7624 276.481C46.6458 275.383 45.6609 274.587 44.5625 274.704L44.9846 278.681ZM54.3307 273.456C53.2383 273.62 52.485 274.637 52.6482 275.73C52.8114 276.822 53.8293 277.576 54.9218 277.412L54.3307 273.456ZM64.792 275.722C65.8765 275.513 66.5857 274.464 66.3762 273.379C66.1666 272.295 65.1175 271.585 64.033 271.795L64.792 275.722ZM73.653 269.723C72.5784 269.978 71.9144 271.056 72.1698 272.131C72.4253 273.206 73.5036 273.87 74.5782 273.614L73.653 269.723ZM84.2645 271.093C85.3273 270.793 85.9451 269.687 85.6444 268.624C85.3436 267.562 84.2382 266.944 83.1754 267.244L84.2645 271.093ZM92.5849 264.366C91.5357 264.712 90.965 265.842 91.3102 266.891C91.6555 267.94 92.7859 268.511 93.8351 268.166L92.5849 264.366ZM103.276 264.839C104.31 264.45 104.833 263.297 104.444 262.263C104.055 261.229 102.902 260.706 101.868 261.095L103.276 264.839ZM111.008 257.439C109.991 257.87 109.516 259.044 109.948 260.061C110.379 261.078 111.553 261.553 112.57 261.121L111.008 257.439ZM121.701 257.024C122.699 256.551 123.125 255.358 122.653 254.36C122.18 253.362 120.987 252.936 119.989 253.409L121.701 257.024ZM128.798 249.015C127.82 249.528 127.443 250.737 127.956 251.715C128.469 252.693 129.678 253.07 130.656 252.557L128.798 249.015ZM139.423 247.733C140.379 247.181 140.708 245.958 140.156 245.001C139.604 244.044 138.381 243.716 137.424 244.268L139.423 247.733ZM145.855 239.179C144.921 239.768 144.642 241.003 145.231 241.937C145.82 242.871 147.056 243.151 147.99 242.561L145.855 239.179ZM156.345 237.057C157.255 236.431 157.486 235.186 156.86 234.276C156.235 233.365 154.99 233.135 154.079 233.76L156.345 237.057ZM162.085 228.027C161.2 228.687 161.017 229.94 161.678 230.825C162.338 231.711 163.591 231.893 164.477 231.233L162.085 228.027ZM172.378 225.101C173.237 224.407 173.371 223.148 172.678 222.288C171.984 221.429 170.725 221.294 169.865 221.988L172.378 225.101ZM177.412 215.657C176.579 216.383 176.493 217.646 177.218 218.479C177.944 219.312 179.207 219.398 180.04 218.673L177.412 215.657ZM187.457 211.961C188.262 211.205 188.301 209.939 187.545 209.134C186.789 208.329 185.523 208.289 184.718 209.046L187.457 211.961ZM191.776 202.166C190.999 202.951 191.006 204.218 191.792 204.994C192.577 205.771 193.844 205.764 194.62 204.978L191.776 202.166ZM201.519 197.743C202.267 196.93 202.213 195.665 201.4 194.917C200.587 194.169 199.322 194.223 198.574 195.036L201.519 197.743ZM205.11 187.664C204.393 188.504 204.491 189.766 205.331 190.484C206.17 191.202 207.433 191.103 208.15 190.264L205.11 187.664ZM214.511 182.552C215.198 181.687 215.055 180.429 214.191 179.742C213.326 179.054 212.068 179.197 211.38 180.062L214.511 182.552ZM217.379 172.24C216.723 173.128 216.91 174.38 217.798 175.037C218.686 175.694 219.939 175.506 220.596 174.618L217.379 172.24ZM226.4 166.474C227.025 165.564 226.794 164.319 225.883 163.693C224.973 163.068 223.728 163.299 223.102 164.21L226.4 166.474ZM228.541 155.989C227.948 156.921 228.222 158.157 229.154 158.751C230.085 159.344 231.321 159.07 231.915 158.139L228.541 155.989ZM237.138 149.622C237.7 148.671 237.383 147.445 236.432 146.883C235.481 146.322 234.255 146.638 233.693 147.589L237.138 149.622ZM238.558 139.016C238.029 139.986 238.387 141.2 239.356 141.729C240.326 142.258 241.541 141.9 242.07 140.931L238.558 139.016ZM246.706 132.075C247.202 131.088 246.804 129.886 245.816 129.39C244.829 128.894 243.627 129.292 243.132 130.279L246.706 132.075ZM247.412 121.39C246.949 122.393 247.387 123.581 248.391 124.044C249.394 124.506 250.582 124.068 251.044 123.065L247.412 121.39ZM255.075 113.926C255.504 112.908 255.027 111.735 254.009 111.306C252.991 110.877 251.818 111.355 251.389 112.373L255.075 113.926ZM255.067 103.228C254.672 104.259 255.188 105.416 256.219 105.811C257.251 106.206 258.407 105.691 258.802 104.659L255.067 103.228ZM262.224 95.2711C262.585 94.2273 262.032 93.0883 260.988 92.727C259.944 92.3658 258.805 92.9191 258.444 93.963L262.224 95.2711ZM261.519 84.5872C261.192 85.6422 261.782 86.7626 262.837 87.0897C263.892 87.4167 265.012 86.8265 265.339 85.7715L261.519 84.5872ZM268.143 76.1804C268.436 75.1154 267.81 74.0146 266.745 73.7219C265.679 73.4292 264.579 74.0553 264.286 75.1204L268.143 76.1804ZM266.745 65.5767C266.486 66.6507 267.147 67.7307 268.221 67.989C269.295 68.2474 270.375 67.5862 270.634 66.5123L266.745 65.5767ZM272.814 56.7637C273.038 55.6821 272.343 54.6238 271.261 54.3999C270.179 54.176 269.121 54.8714 268.897 55.9531L272.814 56.7637ZM270.743 46.2581C270.554 47.3463 271.283 48.382 272.371 48.5713C273.459 48.7606 274.495 48.0319 274.684 46.9437L270.743 46.2581ZM276.241 37.0737C276.396 35.98 275.634 34.9679 274.541 34.8131C273.447 34.6583 272.435 35.4193 272.28 36.513L276.241 37.0737ZM273.508 26.7349C273.388 27.8329 274.18 28.8206 275.278 28.941C276.376 29.0614 277.364 28.269 277.484 27.171L273.508 26.7349ZM276 20L271.077 20L271.077 24L276 24L276 20ZM261.231 20L251.385 20L251.385 24L261.231 24L261.231 20ZM241.538 20L231.692 20L231.692 24L241.538 24L241.538 20ZM221.846 20L212 20L212 24L221.846 24L221.846 20ZM202.154 20L192.308 20L192.308 24L202.154 24L202.154 20ZM182.461 20L172.615 20L172.615 24L182.461 24L182.461 20ZM162.769 20L152.923 20L152.923 24L162.769 24L162.769 20ZM143.077 20L133.231 20L133.231 24L143.077 24L143.077 20ZM123.385 20L113.538 20L113.538 24L123.385 24L123.385 20ZM103.692 20L93.846 20L93.846 24L103.692 24L103.692 20ZM83.9999 20L74.1537 20L74.1537 24L83.9999 24L83.9999 20ZM64.3075 20L54.4614 20L54.4614 24L64.3075 24L64.3075 20ZM44.6152 20L34.769 20L34.769 24L44.6152 24L44.6152 20ZM24.9229 20L19.9999 20L19.9999 24L24.9229 24L24.9229 20ZM17.9999 22L17.9999 26.9231L21.9999 26.9231L21.9999 22L17.9999 22ZM17.9999 36.7692L17.9999 46.6154L21.9999 46.6154L21.9999 36.7692L17.9999 36.7692ZM17.9999 56.4616L17.9999 66.3077L21.9999 66.3077L21.9999 56.4616L17.9999 56.4616ZM17.9999 76.1539L17.9999 86L21.9999 86L21.9999 76.1539L17.9999 76.1539ZM17.9999 95.8462L17.9999 105.692L21.9999 105.692L21.9999 95.8462L17.9999 95.8462ZM17.9999 115.538L17.9999 125.385L21.9999 125.385L21.9999 115.538L17.9999 115.538ZM17.9999 135.231L17.9999 145.077L21.9999 145.077L21.9999 135.231L17.9999 135.231ZM17.9999 154.923L17.9999 164.769L21.9999 164.769L21.9999 154.923L17.9999 154.923ZM17.9999 174.615L17.9999 184.462L21.9999 184.462L21.9999 174.615L17.9999 174.615ZM17.9999 194.308L17.9999 204.154L21.9999 204.154L21.9999 194.308L17.9999 194.308ZM17.9999 214L17.9999 223.846L21.9999 223.846L21.9999 214L17.9999 214ZM17.9999 233.692L17.9999 243.539L21.9999 243.539L21.9999 233.692L17.9999 233.692ZM17.9999 253.385L17.9999 263.231L21.9999 263.231L21.9999 253.385L17.9999 253.385ZM17.9999 273.077L17.9999 278L21.9999 278L21.9999 273.077L17.9999 273.077ZM19.9999 280C21.6773 280 23.351 279.982 25.0209 279.947L24.9366 275.948C23.2948 275.983 21.6492 276 19.9999 276L19.9999 280ZM35.0168 279.525C38.3566 279.314 41.6796 279.032 44.9846 278.681L44.5625 274.704C41.3137 275.048 38.0471 275.325 34.7638 275.533L35.0168 279.525ZM54.9218 277.412C58.232 276.918 61.5225 276.354 64.792 275.722L64.033 271.795C60.8192 272.416 57.5847 272.97 54.3307 273.456L54.9218 277.412ZM74.5782 273.614C77.83 272.841 81.0592 272 84.2645 271.093L83.1754 267.244C80.0242 268.136 76.8497 268.963 73.653 269.723L74.5782 273.614ZM93.8351 268.166C97.0079 267.122 100.155 266.012 103.276 264.839L101.868 261.095C98.7991 262.249 95.7044 263.34 92.5849 264.366L93.8351 268.166ZM112.57 261.121C115.642 259.818 118.686 258.452 121.701 257.024L119.989 253.409C117.024 254.813 114.029 256.157 111.008 257.439L112.57 261.121ZM130.656 252.557C133.609 251.009 136.532 249.4 139.423 247.733L137.424 244.268C134.58 245.908 131.704 247.491 128.798 249.015L130.656 252.557ZM147.99 242.561C150.808 240.783 153.594 238.948 156.345 237.057L154.079 233.76C151.371 235.622 148.629 237.428 145.855 239.179L147.99 242.561ZM164.477 231.233C167.146 229.242 169.78 227.197 172.378 225.101L169.865 221.988C167.307 224.053 164.713 226.066 162.085 228.027L164.477 231.233ZM180.04 218.673C182.55 216.485 185.023 214.248 187.457 211.961L184.718 209.046C182.32 211.298 179.884 213.502 177.412 215.657L180.04 218.673ZM194.62 204.978C196.959 202.613 199.259 200.201 201.519 197.743L198.574 195.036C196.347 197.458 194.081 199.835 191.776 202.166L194.62 204.978ZM208.15 190.264C210.312 187.736 212.432 185.165 214.511 182.552L211.38 180.062C209.331 182.638 207.241 185.173 205.11 187.664L208.15 190.264ZM220.596 174.618C222.573 171.943 224.508 169.228 226.4 166.474L223.102 164.21C221.237 166.925 219.329 169.603 217.379 172.24L220.596 174.618ZM231.915 158.139C233.7 155.336 235.442 152.497 237.138 149.622L233.693 147.589C232.02 150.425 230.302 153.225 228.541 155.989L231.915 158.139ZM242.07 140.931C243.661 138.012 245.207 135.06 246.706 132.075L243.132 130.279C241.652 133.224 240.127 136.137 238.558 139.016L242.07 140.931ZM251.044 123.065C252.435 120.049 253.779 117.002 255.075 113.926L251.389 112.373C250.11 115.408 248.784 118.414 247.412 121.39L251.044 123.065ZM258.802 104.659C259.991 101.557 261.132 98.4276 262.224 95.2711L258.444 93.963C257.366 97.0782 256.24 100.167 255.067 103.228L258.802 104.659ZM265.339 85.7715C266.323 82.5991 267.258 79.4018 268.143 76.1804L264.286 75.1204C263.412 78.3001 262.489 81.456 261.519 84.5872L265.339 85.7715ZM270.634 66.5123C271.41 63.2847 272.137 60.0348 272.814 56.7637L268.897 55.9531C268.229 59.1824 267.511 62.3906 266.745 65.5767L270.634 66.5123ZM274.684 46.9437C275.253 43.673 275.772 40.3827 276.241 37.0737L272.28 36.513C271.818 39.7803 271.305 43.029 270.743 46.2581L274.684 46.9437ZM277.484 27.171C277.666 25.5139 277.835 23.8524 277.991 22.1868L274.009 21.8132C273.854 23.458 273.687 25.0986 273.508 26.7349L277.484 27.171Z" fill="white"/>
<g clip-path="url(#clip0_121_336)">
<rect x="40" width="300" height="40" transform="rotate(90 40 0)" fill="white"/>
<path d="M38 2L38 22L2 22L2 2L38 2Z" stroke="#333333" stroke-width="4"/>
<path fill-rule="evenodd" clip-rule="evenodd" d="M25 24L25 276L29 276L29 24L25 24ZM11 24L11 276L15 276L15 24L11 24Z" fill="#333333"/>
<path d="M38 278L38 298L2 298L2 278L38 278Z" stroke="#333333" stroke-width="4"/>
</g>
<rect x="38" y="2" width="296" height="36" transform="rotate(90 38 2)" stroke="#333333" stroke-width="4"/>
<defs>
<clipPath id="clip0_121_336">
<rect x="40" width="300" height="40" transform="rotate(90 40 0)" fill="white"/>
</clipPath>
</defs>
</svg>
